<svg xmlns="http://www.w3.org/2000/svg" width="206" height="144.895" viewBox="0 0 206 144.895">
  <g id="Empresto" transform="translate(-85 -238.25)">
    <text id="Empresto-2" data-name="Empresto" transform="translate(188 373.145)" fill="#99e5fc" font-size="43" font-family="WorkSans-Bold, Work Sans" font-weight="700"><tspan x="-102.684" y="0">Em</tspan><tspan y="0" fill="#29c2f2">presto</tspan></text>
    <g id="Empresto-3" data-name="Empresto" transform="translate(149 239)">
      <rect id="Retângulo_49" data-name="Retângulo 49" width="47.87" height="68.611" rx="11.234" transform="translate(4.132 68.525) rotate(-90)" fill="#29c2f2"/>
      <g id="Grupo_17" data-name="Grupo 17">
        <g id="Grupo_15" data-name="Grupo 15" transform="translate(35.818 25.658)">
          <path id="Caminho_19" data-name="Caminho 19" d="M211.747,696.353V668.236a4.1,4.1,0,0,0-4.1-4.1h0a4.1,4.1,0,0,0-4.1,4.1v-7.746a4.1,4.1,0,0,0-4.1-4.1h0a4.1,4.1,0,0,0-4.1,4.1v-1.937a4.1,4.1,0,0,0-4.1-4.1h0a4.1,4.1,0,0,0-4.1,4.1V662.3a4.1,4.1,0,0,0-4.1-4.1h0a4.1,4.1,0,0,0-4.1,4.1v16.562a4.1,4.1,0,0,0-4.1-4.1h0a4.1,4.1,0,0,0-4.1,4.1v18.585a20.529,20.529,0,0,0,41.058,0C211.777,697.078,211.766,696.715,211.747,696.353Z" transform="translate(-170.719 -654.45)" fill="#fff" stroke="#004c64" stroke-linecap="round" stroke-linejoin="round" stroke-miterlimit="10" stroke-width="1.5"/>
          <path id="Caminho_20" data-name="Caminho 20" d="M170.719,698.691v-15.5a4.1,4.1,0,0,1,4.1-4.1h0a4.1,4.1,0,0,1,4.1,4.1" transform="translate(-170.719 -658.783)" fill="#fff" stroke="#004c64" stroke-linecap="round" stroke-linejoin="round" stroke-miterlimit="10" stroke-width="1.5"/>
          <path id="Caminho_21" data-name="Caminho 21" d="M210.545,670.3a4.1,4.1,0,0,1,4.1-4.1h0a4.1,4.1,0,0,1,4.1,4.1v26.122" transform="translate(-177.722 -656.516)" fill="#fff" stroke="#004c64" stroke-linecap="round" stroke-linejoin="round" stroke-miterlimit="10" stroke-width="1.5"/>
          <path id="Caminho_22" data-name="Caminho 22" d="M180.676,688.319V663.1a4.1,4.1,0,0,1,4.1-4.1h0a4.1,4.1,0,0,1,4.1,4.1" transform="translate(-172.47 -655.249)" fill="#fff" stroke="#004c64" stroke-linecap="round" stroke-linejoin="round" stroke-miterlimit="10" stroke-width="1.5"/>
          <path id="Caminho_23" data-name="Caminho 23" d="M200.588,660.9a4.1,4.1,0,0,1,4.1-4.1h0a4.1,4.1,0,0,1,4.1,4.1v16.09" transform="translate(-175.971 -654.863)" fill="#fff" stroke="#004c64" stroke-linecap="round" stroke-linejoin="round" stroke-miterlimit="10" stroke-width="1.5"/>
          <path id="Caminho_24" data-name="Caminho 24" d="M190.632,676.579V658.553a4.1,4.1,0,0,1,4.1-4.1h0a4.1,4.1,0,0,1,4.1,4.1v18.027" transform="translate(-174.221 -654.45)" fill="#fff" stroke="#004c64" stroke-linecap="round" stroke-linejoin="round" stroke-miterlimit="10" stroke-width="1.5"/>
        </g>
        <g id="Grupo_16" data-name="Grupo 16">
          <path id="Caminho_25" data-name="Caminho 25" d="M127.289,644.937v28.118a4.1,4.1,0,0,0,4.1,4.1h0a4.1,4.1,0,0,0,4.1-4.1V680.8a4.1,4.1,0,0,0,4.1,4.1h0a4.1,4.1,0,0,0,4.1-4.1v1.937a4.1,4.1,0,0,0,4.1,4.1h0a4.1,4.1,0,0,0,4.1-4.1v-3.744a4.1,4.1,0,0,0,4.1,4.1h0a4.1,4.1,0,0,0,4.1-4.1V662.432a4.1,4.1,0,0,0,4.1,4.1h0a4.1,4.1,0,0,0,4.1-4.1V643.847a20.529,20.529,0,0,0-41.058,0C127.259,644.213,127.27,644.576,127.289,644.937Z" transform="translate(-127.259 -623.318)" fill="#fff" stroke="#004c64" stroke-linecap="round" stroke-linejoin="round" stroke-miterlimit="10" stroke-width="1.5"/>
          <path id="Caminho_26" data-name="Caminho 26" d="M175.326,651.971v15.5a4.1,4.1,0,0,1-4.1,4.1h0a4.1,4.1,0,0,1-4.1-4.1" transform="translate(-134.268 -628.356)" fill="#fff" stroke="#004c64" stroke-linecap="round" stroke-linejoin="round" stroke-miterlimit="10" stroke-width="1.5"/>
          <path id="Caminho_27" data-name="Caminho 27" d="M135.5,678.093a4.1,4.1,0,0,1-4.1,4.1h0a4.1,4.1,0,0,1-4.1-4.1V651.971" transform="translate(-127.265 -628.356)" fill="#fff" stroke="#004c64" stroke-linecap="round" stroke-linejoin="round" stroke-miterlimit="10" stroke-width="1.5"/>
          <path id="Caminho_28" data-name="Caminho 28" d="M165.369,660.268v25.223a4.1,4.1,0,0,1-4.1,4.1h0a4.1,4.1,0,0,1-4.1-4.1" transform="translate(-132.518 -629.815)" fill="#fff" stroke="#004c64" stroke-linecap="round" stroke-linejoin="round" stroke-miterlimit="10" stroke-width="1.5"/>
          <path id="Caminho_29" data-name="Caminho 29" d="M145.456,689.633a4.1,4.1,0,0,1-4.1,4.1h0a4.1,4.1,0,0,1-4.1-4.1v-16.09" transform="translate(-129.016 -632.15)" fill="#fff" stroke="#004c64" stroke-linecap="round" stroke-linejoin="round" stroke-miterlimit="10" stroke-width="1.5"/>
          <path id="Caminho_30" data-name="Caminho 30" d="M155.413,673.543V691.57a4.1,4.1,0,0,1-4.1,4.1h0a4.1,4.1,0,0,1-4.1-4.1V673.543" transform="translate(-130.767 -632.15)" fill="#fff" stroke="#004c64" stroke-linecap="round" stroke-linejoin="round" stroke-miterlimit="10" stroke-width="1.5"/>
        </g>
      </g>
    </g>
  </g>
</svg>
