<svg id="ajuda" xmlns="http://www.w3.org/2000/svg" width="30" height="30" viewBox="0 0 30 30">
  <path id="Caminho_15" data-name="Caminho 15" d="M0,0H30V30H0Z" fill="none"/>
  <path id="Caminho_16" data-name="Caminho 16" d="M13.236,2A11.236,11.236,0,1,0,24.471,13.236,11.24,11.24,0,0,0,13.236,2Zm1.124,19.1H12.112V18.854h2.247Zm2.326-8.708-1.011,1.034a3.825,3.825,0,0,0-1.315,3.18H12.112v-.562a4.522,4.522,0,0,1,1.315-3.18l1.393-1.416a2.2,2.2,0,0,0,.663-1.584,2.247,2.247,0,1,0-4.494,0H8.741a4.494,4.494,0,1,1,8.989,0A3.575,3.575,0,0,1,16.685,12.393Z" transform="translate(2 2)" fill="#004c64"/>
</svg>
