<svg id="gerencimaento" xmlns="http://www.w3.org/2000/svg" width="29.999" height="29.999" viewBox="0 0 29.999 29.999">
  <path id="Caminho_5" data-name="Caminho 5" d="M0,0H30V30H0Z" fill="none"/>
  <path id="Caminho_6" data-name="Caminho 6" d="M15.3,12.423a2.969,2.969,0,1,0,2.97,2.969A2.978,2.978,0,0,0,15.3,12.423Zm7.8,2.969a7.514,7.514,0,0,1-.074,1.01l2.2,1.722a.525.525,0,0,1,.119.668l-2.079,3.593a.525.525,0,0,1-.639.223l-2.584-1.039a7.963,7.963,0,0,1-1.752,1.024L17.9,25.34a.539.539,0,0,1-.52.445H13.223a.54.54,0,0,1-.52-.431l-.386-2.747a7.636,7.636,0,0,1-1.752-1.024L7.981,22.623a.525.525,0,0,1-.639-.223L5.264,18.808a.525.525,0,0,1,.119-.668l2.2-1.722a7.923,7.923,0,0,1-.074-1.024,7.513,7.513,0,0,1,.074-1.01l-2.2-1.722a.525.525,0,0,1-.119-.668L7.342,8.4a.525.525,0,0,1,.639-.223l2.584,1.039a7.964,7.964,0,0,1,1.752-1.024L12.7,5.445A.539.539,0,0,1,13.223,5H17.38a.54.54,0,0,1,.52.431l.386,2.747A7.636,7.636,0,0,1,20.038,9.2l2.584-1.039a.525.525,0,0,1,.639.223l2.079,3.593a.525.525,0,0,1-.119.668l-2.2,1.722A7.923,7.923,0,0,1,23.1,15.393Z" transform="translate(-0.21 -0.018)" fill="#004c64"/>
</svg>
